<svg xmlns="http://www.w3.org/2000/svg" viewBox="0 0 23.461 23.456" xmlns:v="https://vecta.io/nano"><path d="M11.733 5.714c-3.321 0-6.014 2.693-6.014 6.014s2.693 6.014 6.014 6.014 6.014-2.693 6.014-6.014a6 6 0 0 0-6.014-6.014zm0 9.924a3.91 3.91 0 1 1 0-7.82 3.91 3.91 0 0 1 3.91 3.91 3.92 3.92 0 0 1-3.91 3.91zm7.662-10.17a1.4 1.4 0 0 1-2.39.99 1.4 1.4 0 0 1 .99-2.39 1.4 1.4 0 0 1 1.4 1.4zm3.983 1.424a6.94 6.94 0 0 0-1.895-4.915C20.155.729 18.391.048 16.569.082c-1.937-.11-7.741-.11-9.678 0-1.822-.036-3.586.642-4.914 1.89C.726 3.299.046 5.063.082 6.886c-.11 1.937-.11 7.741 0 9.678a6.94 6.94 0 0 0 1.895 4.915 7 7 0 0 0 4.915 1.895c1.937.11 7.741.11 9.678 0a6.94 6.94 0 0 0 4.915-1.895c1.248-1.329 1.928-3.094 1.893-4.917.11-1.937.11-7.736 0-9.672zm-2.5 11.75a3.96 3.96 0 0 1-2.23 2.23c-1.544.612-5.208.471-6.914.471s-5.375.136-6.914-.471a3.96 3.96 0 0 1-2.23-2.23c-.612-1.544-.471-5.208-.471-6.914s-.136-5.375.471-6.914a3.96 3.96 0 0 1 2.23-2.23c1.544-.612 5.208-.471 6.914-.471s5.375-.136 6.914.471a3.96 3.96 0 0 1 2.23 2.23c.612 1.544.471 5.208.471 6.914s.14 5.375-.472 6.914z"/></svg>