<svg id="Group_1617" data-name="Group 1617" xmlns="http://www.w3.org/2000/svg" viewBox="0 0 212.306 191.197">
  <g id="Group_1613" data-name="Group 1613" transform="translate(50.179)">
    <path id="Path_1773" data-name="Path 1773" d="M297.611,207.027a83.389,83.389,0,0,1,18.9-23.459,81.69,81.69,0,0,1,26-15.075,82.6,82.6,0,0,1,58.67,1.416A82.2,82.2,0,0,1,417.61,312.924q-3.066,2.174-6.315,4.069c-2.185,1.278-.207,4.681,1.986,3.4a86.125,86.125,0,0,0-64.53-157.9,85.506,85.506,0,0,0-28.683,13.31,87.364,87.364,0,0,0-21.876,22.613q-2.141,3.218-3.979,6.621c-1.207,2.227,2.189,4.216,3.4,1.986Z" transform="translate(-293.958 -159.857)" fill="#fff"/>
  </g>
  <g id="Group_1614" data-name="Group 1614" transform="translate(121.313 120.523)">
    <path id="Path_1774" data-name="Path 1774" d="M485.128,498.493h-1.3V481.559h1.3v9.116a5.933,5.933,0,0,1,3.48-1.168c1.714,0,2.26.831,2.26,1.584a4.758,4.758,0,0,1-2.7,3.61,7.362,7.362,0,0,0,2.649,2.8.615.615,0,0,1,.311.546.643.643,0,0,1-.649.649.569.569,0,0,1-.337-.1,8.617,8.617,0,0,1-3.195-3.377,4.094,4.094,0,0,1-1.818.182Zm0-4.337a1.41,1.41,0,0,0,.493.078c1.714,0,3.9-1.611,3.9-2.857,0-.6-.676-.727-1.143-.727a5.175,5.175,0,0,0-3.246,1.584Z" transform="translate(-483.829 -481.559)" fill="#fff"/>
    <path id="Path_1775" data-name="Path 1775" d="M514.8,511.933a4.545,4.545,0,1,1,4.545-4.545A4.534,4.534,0,0,1,514.8,511.933Zm0-7.792a3.247,3.247,0,1,0,3.247,3.247A3.248,3.248,0,0,0,514.8,504.141Z" transform="translate(-500.355 -494.869)" fill="#fff"/>
    <path id="Path_1776" data-name="Path 1776" d="M547.467,511.933a4.545,4.545,0,1,1,2.961-8,.645.645,0,1,1-.831.987,3.4,3.4,0,0,0-2.13-.78,3.247,3.247,0,1,0,0,6.493,3.4,3.4,0,0,0,2.13-.779.645.645,0,1,1,.831.987A4.564,4.564,0,0,1,547.467,511.933Z" transform="translate(-520.783 -494.869)" fill="#fff"/>
    <path id="Path_1777" data-name="Path 1777" d="M574.115,481.559v8.623a3.451,3.451,0,0,1,1.974-.649,3.275,3.275,0,0,1,3.273,3.272v5.169a.649.649,0,1,1-1.3,0v-5.169a1.974,1.974,0,1,0-3.948,0v5.688h-1.3V481.559Z" transform="translate(-539.478 -481.559)" fill="#fff"/>
    <path id="Path_1778" data-name="Path 1778" d="M601.106,502.809a1.974,1.974,0,1,0,3.948,0v-.13a.649.649,0,1,1,1.3,0v.13a3.273,3.273,0,0,1-6.545,0v-9.324h1.3v3.636h3.74a.649.649,0,1,1,0,1.3h-3.74Z" transform="translate(-556.357 -489.017)" fill="#fff"/>
  </g>
  <g id="Group_1615" data-name="Group 1615" transform="translate(0 41.033)">
    <path id="Path_1779" data-name="Path 1779" d="M206.709,352.675a82.326,82.326,0,0,1-1.509-32.481,83.289,83.289,0,0,1,2.125-9.754q.676-2.4,1.493-4.764c.527-1.524,1.689-3.344,1.391-4.875a1.784,1.784,0,0,0-.971-1.281c-1.3-.607-2.57.753-3.3,1.956-7.8,12.808-11.7,27.561-15.344,42.108-.339,1.352-1.308,1.915-1.944.86-1.1-1.824-3.7-9.1-4.43-11.2-.93-2.648-4.485-13.961-6.3-19.291a4.381,4.381,0,0,0-.672-1.393,1.523,1.523,0,0,0-1.354-.61c-.666.1-1.073.783-1.267,1.43-4.261,14.13-11.987,63.6-13.154,70.651-.248,1.5-1.712,9.88-1.405,11.426a1.762,1.762,0,0,0,1.565,1.456c1.513.167,2.148-1.173,2.39-2.443.324-1.7,9.969-59.89,10.914-64.63.457-2.293,1.342-6.489,1.631-7.86a.109.109,0,0,1,.212-.006c.73,2.713,4.708,17.279,7.931,24.527a11.886,11.886,0,0,0,2.464,3.966,3.065,3.065,0,0,0,4.37.351c2.063-1.483,3.437-7.066,4.359-10.437,1.576-5.764,2.864-11.528,4.826-17.99a.108.108,0,0,1,.211.041,103.7,103.7,0,0,0-.569,12.71,86.648,86.648,0,0,0,7.048,31.775,99.777,99.777,0,0,0,9.514,16.8,2.022,2.022,0,0,0,2.693.706,1.984,1.984,0,0,0,.706-2.692A91.081,91.081,0,0,1,206.709,352.675Z" transform="translate(-160.018 -288.137)" fill="#fff"/>
    <path id="Path_1780" data-name="Path 1780" d="M322.345,382.911q-.06-.1-.129-.2c-1.056-1.529-3.785-2.225-5.55-2.159-3.15.118-6.228,2.774-7.919,5.135a32.3,32.3,0,0,0-4.61,10.029c-1.059,3.551-1.768,7.928-1.37,10.2a4.826,4.826,0,0,0,4.215,4.069c3.052.311,5.362-4.133,6.939-7.171.686-1.321,2.585-5.655,3.464-7.674a.21.21,0,0,1,.4.093c-.133,2.941-.457,10.79-.311,14.533a8.769,8.769,0,0,0,.345,2.517c.386,1.126.956,2.164,2.325,2a2.143,2.143,0,0,0,.937-.351c1.539-1.023.5-3.389.484-5.76-.015-3.051.347-15.345.641-17.394q.291-2.028.493-4.068A6.345,6.345,0,0,0,322.345,382.911Zm-5.887,7.1c-.49,1.08-1.121,3.016-1.669,4.069-.986,1.9-3.412,7.2-4.921,9.517-3.312,5.1-4.672,2.949-4.236-1.334,0-.014.449-2.663,1.183-5.247a33.911,33.911,0,0,1,5.736-11c.757-.907,3.206-3.38,4.885-2.377,1.047.625.149,3.519-.247,4.6C316.97,388.843,316.722,389.433,316.458,390.015Z" transform="translate(-249.218 -338.899)" fill="#fff"/>
    <path id="Path_1781" data-name="Path 1781" d="M484.63,319.632c-.954-.139-1.8.8-2.4,1.416-.687.7-4.392,4.824-5.533,6.056a18.124,18.124,0,0,1-7.205,5.243,2.734,2.734,0,0,1-1.16.156c-2.415-.228-2.055-3.32-1.837-4.927.245-1.8.815-3.542,1.22-5.312.225-.982.312-2.219-.617-2.739a1.611,1.611,0,0,0-1.421-.025,4.341,4.341,0,0,0-1.788,1.864,55.815,55.815,0,0,1-9.272,11.493,5.046,5.046,0,0,1-1.518,1.053,1.876,1.876,0,0,1-1.775-.147c-.627-.469-2.232-2.685.287-11.621a3.768,3.768,0,0,0,.132-2.621,1.38,1.38,0,0,0-.776-.75c-1.286-.452-2.19,1.331-2.8,2.173-.815,1.128-6.221,10.425-6.221,10.425s-5.478,9.342-10.191,9.2c-4.958-.148-5.619-4.841-5.531-16.619.023-3.087.456-8.316.574-9.6a.867.867,0,0,1,.178-.453c.65-.841,4.013-4.5,5.23-6.191,2.018-2.805,8.533-12.25,10.733-17.928,2.251-5.809,3.367-16.682-2.2-19.848-2.75-1.563-5.948.548-7.592,2.419-4.441,5.054-6.453,11.774-7.766,18.373a147.238,147.238,0,0,0-2.346,18.11,7.652,7.652,0,0,1-.608,2.958c-.332.651-5.039,5.554-6.881,7.474-1.8,1.872-3.516,3.964-5.467,5.671.014-.235,1.645-15.37,2.757-19.925a4.759,4.759,0,0,0,.181-2.369,1.808,1.808,0,0,0-3.256-.434c-2.369,4.026-4.576,8.125-7.136,12.038s-11.138,16.356-13.561,17.779a3.071,3.071,0,0,1-1.862.524,1.932,1.932,0,0,1-1.587-1.4c-.477-1.182-.071-3.349.2-4.718a113.856,113.856,0,0,1,3.049-11.106c.561-1.872,1.3-3.688,1.832-5.569.359-1.269,1.664-3.616-.421-4.345q-1.026-.465-1.77.745c-.58,1.027-2.417,6.746-3.215,9.047a3.176,3.176,0,0,0-2.809-.642,7.622,7.622,0,0,0-2.217,1.1,40.865,40.865,0,0,0-9.3,8.759.211.211,0,0,1-.375-.158l.938-7.27c.149-1.153-1.435-1.8-2.335-1.189-.791.54-.848,1.941-.964,2.8-.874,6.441-1.748,12.885-2.262,19.365a2.51,2.51,0,0,0,.073,1.081,1.706,1.706,0,0,0,1,.927,1.941,1.941,0,0,0,1.7-.079,3.172,3.172,0,0,0,1.136-2.322c1.393-8.447,5.262-13.894,12.233-18.308a10.157,10.157,0,0,1,2.185-1.152c-.665,2.765-1.566,5.953-1.884,7.345-.561,2.457-.718,5.553.059,7.624a4.78,4.78,0,0,0,2.526,2.582,3.713,3.713,0,0,0,1.6.264c4.111-.116,5.974-2.679,8.112-5.2,2.188-2.575,10.741-15.436,12.769-18.127a.212.212,0,0,1,.381.146c-.227,2.515-1.521,11.759-1.735,13.645-.345,2.413-.124,1.651-4.144,5.419-1.849,1.733-3.586,3.581-5.333,5.417a59.524,59.524,0,0,0-8.194,10.2c-2.082,3.472-3.57,7.481-3.166,11.51a9.263,9.263,0,0,0,1.58,4.514,5.861,5.861,0,0,0,4,2.469c2.5.273,4.8-1.388,6.533-3.208a36.411,36.411,0,0,0,7.911-14.273c1.441-4.531,3.454-14.715,3.966-17.353a2.1,2.1,0,0,1,.581-1.091c2.048-2.042,10.331-10.307,12.264-12.371a.212.212,0,0,1,.365.158c-.3,6.179-.306,6.277-.41,9.5a30.165,30.165,0,0,0,1.059,10.057,11.9,11.9,0,0,0,3.376,5.543,7.287,7.287,0,0,0,6.971,1.345,15.735,15.735,0,0,0,7.9-5.771,98.394,98.394,0,0,0,5.758-9.166.213.213,0,0,1,.393.125,16.091,16.091,0,0,0,.068,3.208,6.529,6.529,0,0,0,1.631,3.642c1.873,1.934,4.767,1.406,6.737-.1,2.906-2.224,3.666-3.322,6.6-7.14a.213.213,0,0,1,.382.123,6.9,6.9,0,0,0,.086,1.067,12.943,12.943,0,0,0,.839,3.074,4.3,4.3,0,0,0,2.329,2.235,6.671,6.671,0,0,0,3.3.37c4.973-.563,11.811-8.813,13.808-10.963.85-.915,3.46-3.586,2.024-4.933A1.3,1.3,0,0,0,484.63,319.632Zm-57.1-18.381q.355-2.793.831-5.569c1.153-6.715,2.242-13.484,6.007-19.161,1.055-1.591,2.964-3.148,4.784-1.634a3.567,3.567,0,0,1,1.183,2.02c1.186,5.674-.372,11.369-3.069,16.428a82.449,82.449,0,0,1-4.725,7.788q-1.308,1.908-2.721,3.742c-.53.687-1.787,2.21-2.637,3.081a.216.216,0,0,1-.385-.153c.1-.952.254-2.2.308-2.751Q427.291,303.143,427.531,301.25Zm-23.04,37.24c-.559,2.422-1.023,4.2-1.736,6.871-1.471,5.509-4.092,11.233-8.224,15.251a5.063,5.063,0,0,1-1.813,1.258,2.943,2.943,0,0,1-3.273-1.074,4.762,4.762,0,0,1-.688-2.513c-.284-5.8,3.36-10.908,6.883-15.168,1.427-1.725,7.914-8.151,9.829-9.914a.207.207,0,0,1,.34.209C405.422,334.811,404.878,336.925,404.491,338.491Z" transform="translate(-288.793 -269.385)" fill="#fff"/>
  </g>
  <g id="Group_1616" data-name="Group 1616" transform="translate(60.59 142.468)">
    <path id="Path_1782" data-name="Path 1782" d="M321.762,542.862a.382.382,0,0,1,.543-.466c6.25,3,18.852,8.682,18.969,8.725q2.669.977,5.345,1.91c-.826-.535-1.648-1.09-2.5-1.542a56.885,56.885,0,0,1-5.639-3.114c-1.747-1.184-3.465-2.38-5.246-3.493a9.554,9.554,0,0,1-3.371-2.931c-.211-.343-.093-.875.323-.749,1.647.5,3.306,1.756,4.907,2.556a48.7,48.7,0,0,1,5.6,3.311c1.7,1.15,3.349,2.315,5,3.579,1.626,1.246,3.54,2.2,5.1,3.553,2.961.993,4.873,1.7,7.726,2.588a.02.02,0,0,0,.013-.037,20.926,20.926,0,0,1-7.48-4.409c-.311-.285-.253-.831.122-.853,1.1-.064,2.369.768,3.447,1.226,1.951.831,3.917,1.409,5.889,2.066a36.256,36.256,0,0,1,3.514,1.395c-.432-.346-.859-.7-1.276-1.07a49.683,49.683,0,0,1-6.114-6.654c-1.049-1.351-1.9-2.843-2.934-4.2a34.145,34.145,0,0,1-2.44-3.465c-.188-.322.082-.743.389-.636,4.26,1.479,7.4,6.515,10.771,9.774,2.214,2.145,4.106,4.625,6.466,6.565,1.193.981,2.366,2.049,3.561,3.074a42.907,42.907,0,0,1-2.152-4.323c-.908-2.175-1.9-4.32-2.8-6.5a5.919,5.919,0,0,1-.58-3.417.393.393,0,0,1,.725-.051,87.817,87.817,0,0,1,4.621,9.621c1.188,2.579,2.738,5.883,5.351,6.916,3.168,1.253,14.348,3.163,17.158,3.558a.11.11,0,0,0,.057-.211c-.812-.33-2.276-.864-3.142-1.156a36.278,36.278,0,0,1-6.012-2.228,55.986,55.986,0,0,0-5.847-3.109,11.776,11.776,0,0,1-4.414-2.469c-.326-.332-.228-.966.237-.844,1.941.51,3.833.608,5.763,1.4,2.14.88,4.272,1.9,6.391,2.888s6.91,3.458,7.2,3.633a43.178,43.178,0,0,1-6.121-4.727,45.221,45.221,0,0,1-5.437-6.431,33.021,33.021,0,0,1-4.24-7.956c-.23-.621.432-.882.755-.318a50.782,50.782,0,0,0,6.758,8.519c1.306,1.446,2.513,3.144,3.933,4.442.562.515,1.145.991,1.735,1.456a.4.4,0,0,1,.271-.2,3.628,3.628,0,0,1,2.063.5c1,.453,9.7,6.748,9.733,6.818.092,0,4.619-.123,6.607-.383-3.663-.992-7.322-3.407-10.524-5.8-4.813-3.6-9.608-7.389-12.607-13.136a.406.406,0,1,1,.687-.43,20.3,20.3,0,0,0,5.793,5.341c2.4,1.6,4.644,3.491,6.991,5.18,2.469,1.777,5.026,3.317,7.6,4.826,2.259,1.327,6.747.827,7.086.761-3.541-.955-6.274-1.33-9.067-4.1a34.042,34.042,0,0,1-8.706-14.1c-.129-.447.342-.647.643-.4a36.233,36.233,0,0,1,4.124,4.884c1.805,2.19,3.465,4.572,5.388,6.633,2.487,2.665,12.749,6.019,13.287,6.331a.925.925,0,0,1,.412,1.1c-.554,1.631-1.842,5.672-1.805,7.883.024,1.557.345,5.969-.508,7.155-.2.279-.55.171-.745-.164-2.3-3.956-1.046-11.565.708-14.925a15.1,15.1,0,0,0-1.592,1.678c-.979,1.093-2.4,1.694-3.535,2.625-2.325,1.91-2.519,10.291-2.788,13.552a75.973,75.973,0,0,1-1.632,8.705c-.093.467-.733.271-.832-.19-1.312-6.052.809-14.012,2.512-19.784-.382.362-3.015,4.84-3.405,5.191-2.882,2.587-5.606,2.492-7.5,6.313-.175.354-.819.1-.8-.423a8.85,8.85,0,0,1,2.1-5.128,21.731,21.731,0,0,1,4.425-4.3c1.391-.969,4.1-1.815,4.771-3.637-2.228.3-4.562.411-6.83.534-2.612,1.5-3.253,4.427-5.151,6.767-1.548,1.908-3.143,4.666-5.391,5.66a.486.486,0,0,1-.587-.3,3.66,3.66,0,0,1,.484-3.142,41.419,41.419,0,0,1,2.564-4.45,13.144,13.144,0,0,1,3.6-3.705c.566-.372.758-.571,1.316-.934a.112.112,0,0,0-.046-.2c-5.23-.6-7.656,1.457-8.427,2.133a46.349,46.349,0,0,0-3.473,4.094c-1.134,1.259-2.263,2.537-3.437,3.748a4.857,4.857,0,0,1-2.9,1.807.571.571,0,0,1-.515-.707,18.21,18.21,0,0,1,3.933-7.155c-1.53.51-3.063,1.014-4.559,1.6-2.225.875-4.7,1.376-6.79,2.54-1.436.8-2.8,1.944-4.609,1.747a.561.561,0,0,1-.287-.883,43.2,43.2,0,0,1,5.293-3.925,30.129,30.129,0,0,1,6.905-2.734c1.731-.5,3.488-.932,5.234-1.389q-2.342.26-4.69.478c-3.584.326-7.148.817-10.876.206-.444-.073-.547-.78-.2-.94,3.292-1.5,6.408-1.4,10.036-1.838.855-.1,2.291-.137,3.148-.24-2.485-.481-5.173-.77-7.676-1.376a.754.754,0,0,0-.556.077c-.55.317-1.918,1.036-2.844,1.491-1.458.714-2.936,1.448-4.327,2.285-1.469.883-2.884,1.839-4.331,2.754a4.6,4.6,0,0,1-2.655,1.119.556.556,0,0,1-.4-.893,34.363,34.363,0,0,1,8.516-6.28,29.366,29.366,0,0,1-3.728.465c-1.866.1-3.734.227-5.621.2-1.319-.018-2.746.389-4.079-.215a.527.527,0,0,1-.087-.9c2.68-1.548,5.877-1.793,9.018-1.984,1.726-.1,3.461-.163,5.209-.141.348,0,.227.031.577.054-.776-.214-1.551-.432-2.325-.648a20.844,20.844,0,0,1-2.442-.683q-1.37-.386-2.74-.787a1.079,1.079,0,0,0-1,.219,9.817,9.817,0,0,1-2.807,1.479,31.222,31.222,0,0,1-5.614,1.349,48.036,48.036,0,0,1-6.186.815c-1.252.089-2.979.631-4.266-.173-.265-.166-.46-.662-.177-.842a9.242,9.242,0,0,1,3.234-.992c1.635-.336,3.277-.642,4.917-.961,1.76-.342,3.518-.705,5.25-1.139-2.049.234-4.124.364-6.219.43-1.7.052-3.39.036-5.106-.06a3.745,3.745,0,0,1-2.467-.76.508.508,0,0,1,.014-.827c2.4-1.124,5.819-.734,8.538-.68,1.106.021,3.085.2,4.391.327a.111.111,0,0,0,.042-.217c-2.19-.608-6.742-1.862-9.445-2.534a21.847,21.847,0,0,0-3.257.635c-1.322.344-2.643.685-3.958,1.05a29.383,29.383,0,0,1-7.8,1.567c-.6,0-.607-.725-.277-1.033a6.915,6.915,0,0,1,1.9-1.079q1.741-.784,3.55-1.4.919-.313,1.853-.582a6.9,6.9,0,0,1,1.687-.43,107.353,107.353,0,0,0-13.082.966c-.346.056-.689-.522-.471-.811,1.455-1.915,4.5-2.128,6.741-2.288,1-.071,1.995-.117,2.99-.13a34.315,34.315,0,0,1-7.6-2.288,25.391,25.391,0,0,1-5.608-3.832C323.6,544.925,322.094,544.269,321.762,542.862Z" transform="translate(-321.746 -540.135)" fill="#fff"/>
  </g>
</svg>
